<?xml version="1.0" encoding="utf-8"?>
<svg viewBox="0 0 141.61 141.61" xmlns="http://www.w3.org/2000/svg" xmlns:bx="https://boxy-svg.com">
  <path style="fill: rgb(102, 102, 102);" transform="matrix(-0.293455, 0.289963, -0.289963, -0.293455, 208.407776, 86.969925)" d="M 194.871 140.947 L 224.567 140.947 L 230.833 186.302 A 78.885 78.885 0 0 1 248.534 193.634 L 285.036 165.994 L 306.034 186.992 L 278.394 223.494 A 78.885 78.885 0 0 1 285.726 241.195 L 331.081 247.461 L 331.081 277.157 L 285.726 283.423 A 78.885 78.885 0 0 1 278.394 301.124 L 306.034 337.626 L 285.036 358.624 L 248.534 330.984 A 78.885 78.885 0 0 1 230.833 338.316 L 224.567 383.671 L 194.871 383.671 L 188.605 338.316 A 78.885 78.885 0 0 1 170.904 330.984 L 134.402 358.624 L 113.404 337.626 L 141.044 301.124 A 78.885 78.885 0 0 1 133.712 283.423 L 88.357 277.157 L 88.357 247.461 L 133.712 241.195 A 78.885 78.885 0 0 1 141.044 223.494 L 113.404 186.992 L 134.402 165.994 L 170.904 193.634 A 78.885 78.885 0 0 1 188.605 186.302 Z M 209.719 262.309 A 0 0 0 0 0 209.719 262.309 A 0 0 0 0 0 209.719 262.309" bx:shape="cog 209.719 262.309 0 78.885 121.362 0.38 8 1@fd95c768"/>
  <text x="50.639" y="80.145" style="white-space: pre; fill: rgb(255, 255, 255); font-size: 24px; font-family: -apple-system, BlinkMacSystemFont, &quot;Segoe UI&quot;, Roboto, Oxygen, Ubuntu, Cantarell, &quot;Fira Sans&quot;, &quot;Droid Sans&quot;, &quot;Helvetica Neue&quot;;">API</text>
</svg>